<svg xmlns="http://www.w3.org/2000/svg" xmlns:xlink="http://www.w3.org/1999/xlink" width="24" height="24" viewBox="0 0 24 24">
    <defs>
        <path id="a" d="M9.5 20c0 1.382 1.118 2.5 2.5 2.5s2.5-1.118 2.5-2.5h-5zm10.068-8.722c0-3.34-2.475-7.164-5.819-7.904v-.74C13.749 1.73 12.968 1 12 1c-.968 0-1.749.73-1.749 1.634v.74c-3.344.74-5.819 4.563-5.819 7.904v4.954L2 18.41V19.5h20v-1.09l-2.432-2.178v-4.954zM13 12.01v2.001a.997.997 0 0 1-1 .999c-.552 0-1-.443-1-.999V12.01H8.999A1 1 0 0 1 8 11.005 1 1 0 0 1 8.999 10H11V7.999A.997.997 0 0 1 12 7c.552 0 1 .443 1 .999V10h2.001A1 1 0 0 1 16 11.005a1 1 0 0 1-.999 1.005H13z"/>
    </defs>
    <use fill="#007277" fill-rule="evenodd" xlink:href="#a"/>
</svg>
