<svg xmlns="http://www.w3.org/2000/svg" width="14" height="14" viewBox="0 0 14 14">
    <g fill="none" fill-rule="evenodd">
        <path fill="#F5D650" d="M7.285 13.547a6.715 6.715 0 1 0 0-13.43 6.715 6.715 0 0 0 0 13.43z"/>
        <path fill="#41B67E" d="M1.017 9.562c.048.1.125.204.198.346.308.602.336.58.336.58s.403.564.851 1.013c.274.273.636.574.792.684 1.477 1.054 2.735 1.26 3.328 1.32.593.06.869.04.869.04l2.511-5.55S7.79 9.336 6.772 9.21c-.467-.059-1.454-.751-1.663-.994-.21-.243.465-.761-.46-1.824-.392-.45.03.004-.422-.398-.45-.402-.188-.144-.723-.763a45.134 45.134 0 0 0-1.946-2.09S.972 4.134.79 4.767c-.062.216-.155.505-.207.792-.09.507-.122.998-.122.998S.435 7.38.49 7.722c.018.111.03.234.061.42.038.23.1.532.175.704.101.23.134.391.29.716z"/>
        <path fill="#E74D4D" d="M8.288.099c-.664-.117-.663-.08-.663-.08S7.328-.012 6.95.006c-.21.01-.444.051-.667.083a6.935 6.935 0 0 0-.97.213c-2.915.922-3.92 3.133-3.92 3.133s3.233 4.527 3.43 4.728c.199.201-.48-2.16-.145-1.812.205.213.83.907.83.907.336-.655-.444-1.836 0-2.295.326-.339.09-.395.41-.415.319-.021-1.039.1.365 0 1.403-.1-.747-.365.667-.46.413-.028-1.466.028-.667 0 .539-.02-.718.026.127 0 .45-.015.656-.126 1.254-.144C9.977 3.87 13.3 3.87 13.3 3.87s-.092-.207-.216-.436a5.55 5.55 0 0 0-.442-.648l-.204-.271c-.11-.145-.23-.273-.333-.386-.11-.12-.213-.244-.31-.333-.138-.124-.264-.225-.382-.328a4.45 4.45 0 0 0-.97-.655C10.22.697 9.735.427 9.404.349c-.319-.076-.45-.18-1.116-.25z"/>
        <path fill="#FFF" fill-rule="nonzero" d="M7.343 10.336a3.562 3.562 0 1 1 0-7.124 3.562 3.562 0 0 1 0 7.124z"/>
        <path fill="#51A8E4" fill-rule="nonzero" d="M7.343 8.584a1.81 1.81 0 1 0 0-3.62 1.81 1.81 0 0 0 0 3.62z"/>
        <path d="M-2 0h16v16H-2z"/>
    </g>
</svg>
